<?xml version="1.0" encoding="UTF-8" standalone="no"?>
<!-- Created with Inkscape (http://www.inkscape.org/) -->

<svg
   xmlns:dc="http://purl.org/dc/elements/1.1/"
   xmlns:cc="http://creativecommons.org/ns#"
   xmlns:rdf="http://www.w3.org/1999/02/22-rdf-syntax-ns#"
   xmlns:svg="http://www.w3.org/2000/svg"
   xmlns="http://www.w3.org/2000/svg"
   xmlns:inkscape="http://www.inkscape.org/namespaces/inkscape"
   version="1.1"
   width="116"
   height="100"
   id="svg4113">
  <defs
     id="defs4115">
    <inkscape:path-effect
       effect="skeletal"
       id="path-effect3952" />
    <inkscape:path-effect
       effect="skeletal"
       id="path-effect3948" />
  </defs>
  <metadata
     id="metadata4118">
    <rdf:RDF>
      <cc:Work
         rdf:about="">
        <dc:format>image/svg+xml</dc:format>
        <dc:type
           rdf:resource="http://purl.org/dc/dcmitype/StillImage" />
        <dc:title />
      </cc:Work>
    </rdf:RDF>
  </metadata>
  <g
     transform="translate(0.02288901,-952.35967)"
     id="layer1">
    <path
       d="M 376.67383,464.85011 29.040436,464.8501 -144.77625,163.79074 29.040466,-137.2686 l 347.633394,2e-5 173.81668,301.05935 z"
       transform="matrix(0.16540424,0,0,0.16441952,24.42368,975.42927)"
       id="path3846"
       style="fill:#ffff00;fill-opacity:1;stroke:#000000;stroke-width:6.06343651;stroke-miterlimit:4;stroke-opacity:1;stroke-dasharray:none" />
    <rect
       width="12"
       height="98"
       x="51.977112"
       y="953.35968"
       id="rect3985"
       style="fill:#ffffff;fill-opacity:1;stroke:#000000;stroke-width:0;stroke-linecap:butt;stroke-miterlimit:4;stroke-opacity:1;stroke-dasharray:none" />
    <rect
       width="8"
       height="98"
       x="53.977112"
       y="953.35968"
       id="rect3987"
       style="fill:#000000;fill-opacity:1;stroke:#000000;stroke-width:0;stroke-linecap:butt;stroke-miterlimit:4;stroke-opacity:1;stroke-dasharray:none" />
    <text
       x="71"
       y="91.75"
       transform="translate(-0.02288901,952.35967)"
       id="text3852"
       xml:space="preserve"
       style="font-size:10px;font-style:normal;font-variant:normal;font-weight:normal;font-stretch:normal;line-height:125%;letter-spacing:0px;word-spacing:0px;fill:#000000;fill-opacity:1;stroke:none;font-family:URW Bookman L;-inkscape-font-specification:Sans"><tspan
         id="tspan3854" /></text>
    <text
       x="79"
       y="94"
       transform="translate(-0.02288901,952.35967)"
       id="text3856"
       xml:space="preserve"
       style="font-size:12px;font-style:normal;font-variant:normal;font-weight:bold;font-stretch:normal;line-height:125%;letter-spacing:0px;word-spacing:0px;fill:#000000;fill-opacity:1;stroke:none;font-family:URW Bookman L;-inkscape-font-specification:Sans Bold"><tspan
         id="tspan3858" /></text>
    <text
       x="77.472816"
       y="1047.3596"
       id="text3860"
       xml:space="preserve"
       style="font-size:10px;font-style:normal;font-variant:normal;font-weight:normal;font-stretch:normal;text-align:center;line-height:100%;letter-spacing:-0.5px;word-spacing:0px;text-anchor:middle;fill:#000000;fill-opacity:1;stroke:none;font-family:URW Bookman L;-inkscape-font-specification:Sans"><tspan
         x="77.472816"
         y="1047.3596"
         id="tspan3864">8852</tspan></text>
    <path
       d="M 376.67383,464.85011 29.040436,464.8501 -144.77625,163.79074 29.040466,-137.2686 l 347.633394,2e-5 173.81668,301.05935 z"
       transform="matrix(0.16540424,0,0,0.16441952,24.42368,975.42927)"
       id="tile_border"
       style="fill:none;stroke:#000000;stroke-width:6.06343651;stroke-miterlimit:4;stroke-opacity:1;stroke-dasharray:none" />
    <path
       d="m 50,27.5 a 12.5,12.5 0 1 1 -25,0 12.5,12.5 0 1 1 25,0 z"
       transform="matrix(0.76,0,0,0.76,56.383303,966.52568)"
       id="path3901"
       style="fill:#ffffff;fill-opacity:1;stroke:#000000;stroke-width:1.31578946;stroke-linecap:butt;stroke-miterlimit:4;stroke-opacity:1;stroke-dasharray:none" />
    <text
       x="77.342369"
       y="991.51166"
       id="text3897"
       xml:space="preserve"
       style="font-size:10px;font-style:normal;font-variant:normal;font-weight:bold;font-stretch:normal;line-height:100%;letter-spacing:-1px;word-spacing:0px;fill:#000000;fill-opacity:1;stroke:none;font-family:URW Bookman L;-inkscape-font-specification:Sans Bold"><tspan
         x="77.342369"
         y="991.51166"
         id="tspan3899"
         style="font-size:12px;line-height:100%">20</tspan></text>
    <g
       transform="translate(24.635148,8.1139959)"
       id="g4389">
      <path
         d="m 38.890872,44.580505 a 7.5130095,6.805903 0 1 1 -15.026019,0 7.5130095,6.805903 0 1 1 15.026019,0 z"
         transform="matrix(1.464127,0,0,1.616244,-12.599213,922.19271)"
         id="path3125"
         style="fill:#ffffff;fill-opacity:1;stroke:none" />
      <path
         d="m 38.890872,44.580505 a 7.5130095,6.805903 0 1 1 -15.026019,0 7.5130095,6.805903 0 1 1 15.026019,0 z"
         transform="matrix(1.1313709,0,0,1.2489158,-2.1580377,938.56839)"
         id="path4397"
         style="fill:#ffffff;fill-opacity:1;stroke:#000000;stroke-width:0.84126133;stroke-miterlimit:4;stroke-opacity:1;stroke-dasharray:none" />
      <path
         d="m 38.890872,44.580505 a 7.5130095,6.805903 0 1 1 -15.026019,0 7.5130095,6.805903 0 1 1 15.026019,0 z"
         transform="matrix(0.73206349,0,0,0.80812201,10.371375,958.2192)"
         id="path4907"
         style="fill:#000000;fill-opacity:1;stroke:none" />
    </g>
  </g>
</svg>
