<?xml version="1.0" encoding="UTF-8" standalone="no"?>
<!-- Created with Inkscape (http://www.inkscape.org/) -->

<svg
   xmlns:dc="http://purl.org/dc/elements/1.1/"
   xmlns:cc="http://creativecommons.org/ns#"
   xmlns:rdf="http://www.w3.org/1999/02/22-rdf-syntax-ns#"
   xmlns:svg="http://www.w3.org/2000/svg"
   xmlns="http://www.w3.org/2000/svg"
   xmlns:xlink="http://www.w3.org/1999/xlink"
   xmlns:inkscape="http://www.inkscape.org/namespaces/inkscape"
   version="1.1"
   width="116"
   height="100"
   id="svg4113">
  <defs
     id="defs4115">
    <inkscape:path-effect
       effect="skeletal"
       id="path-effect3952" />
    <inkscape:path-effect
       effect="skeletal"
       id="path-effect3948" />
  </defs>
  <metadata
     id="metadata4118">
    <rdf:RDF>
      <cc:Work
         rdf:about="">
        <dc:format>image/svg+xml</dc:format>
        <dc:type
           rdf:resource="http://purl.org/dc/dcmitype/StillImage" />
        <dc:title></dc:title>
      </cc:Work>
    </rdf:RDF>
  </metadata>
  <path
     d="M 86.750018,99.500032 29.24998,99.50003 0.4999634,49.999995 29.249985,0.49996268 86.750023,0.49996597 115.50004,50 z"
     id="path3846"
     style="fill:#ffff00;fill-opacity:1;stroke:none" />
  <rect
     width="19.999939"
     height="11.999883"
     x="68.941475"
     y="53.064342"
     transform="matrix(0.96592735,0.25881337,-0.25882393,0.96592452,0,0)"
     id="rect4462"
     style="fill:#ffffff;fill-opacity:1;stroke:none" />
  <rect
     width="19.999939"
     height="11.999883"
     x="76.241028"
     y="-37.819241"
     transform="matrix(0.70711094,0.70710263,-0.70711035,0.70710322,0,0)"
     id="rect4454"
     style="fill:#ffffff;fill-opacity:1;stroke:none" />
  <text
     x="71"
     y="91.75"
     id="text3852"
     xml:space="preserve"
     style="font-size:10px;font-style:normal;font-variant:normal;font-weight:normal;font-stretch:normal;line-height:125%;letter-spacing:0px;word-spacing:0px;fill:#000000;fill-opacity:1;stroke:none;font-family:URW Bookman L;-inkscape-font-specification:Sans"><tspan
       id="tspan3854" /></text>
  <text
     x="79"
     y="94"
     id="text3856"
     xml:space="preserve"
     style="font-size:12px;font-style:normal;font-variant:normal;font-weight:bold;font-stretch:normal;line-height:125%;letter-spacing:0px;word-spacing:0px;fill:#000000;fill-opacity:1;stroke:none;font-family:URW Bookman L;-inkscape-font-specification:Sans Bold"><tspan
       id="tspan3858" /></text>
  <text
     x="77.591408"
     y="97"
     id="text3860"
     xml:space="preserve"
     style="font-size:10px;font-style:normal;font-variant:normal;font-weight:normal;font-stretch:normal;text-align:center;line-height:100%;letter-spacing:0px;word-spacing:0px;writing-mode:lr-tb;text-anchor:middle;fill:#000000;fill-opacity:1;stroke:none;font-family:URW Bookman L;-inkscape-font-specification:Sans"><tspan
       x="77.591408"
       y="97"
       id="tspan3677">71</tspan></text>
  <path
     d="M 100.95225,24.958578 C 113.8718,17.358696 128.92689,13 145,13 c 48.04878,0 87,38.951227 87,87 l 0,0 c 0,48.04878 -38.95122,87 -87,87 -48.048778,0 -87,-38.95122 -87,-87 0,-0.168703 4.8e-4,-0.337293 0.0014,-0.50577"
     id="path9486"
     style="color:#000000;fill:none;marker:none;visibility:visible;display:inline;overflow:visible;enable-background:accumulate" />
  <path
     d="M 58.001439,99.49423 C 58.182259,67.729806 75.385858,39.997925 100.95225,24.958578"
     id="path8889"
     style="color:#000000;fill:none;marker:none;visibility:visible;display:inline;overflow:visible;enable-background:accumulate" />
  <use
     id="use9463"
     style="stroke:#ffffff;stroke-width:12;stroke-miterlimit:4;stroke-dasharray:none"
     x="0"
     y="0"
     width="116"
     height="100"
     xlink:href="#path8889" />
  <use
     id="use9465"
     style="stroke:#000000;stroke-width:8;stroke-miterlimit:4;stroke-dasharray:none"
     x="0"
     y="0"
     width="116"
     height="100"
     xlink:href="#path8889" />
  <use
     id="use9467"
     style="stroke:#ffffff;stroke-width:4;stroke-miterlimit:4;stroke-dasharray:2, 2;stroke-dashoffset:1.2"
     x="0"
     y="0"
     width="116"
     height="100"
     xlink:href="#path8889" />
  <path
     d="M 86.750018,99.500032 29.24998,99.50003 0.4999634,49.999995 29.249985,0.49996268 86.750023,0.49996597 115.50004,50 z"
     id="tile_border"
     style="fill:none;stroke:#000000;stroke-width:0.99992824;stroke-miterlimit:4;stroke-opacity:1;stroke-dasharray:none" />
  <g
     transform="translate(-22.977112,-927.35967)"
     id="g3152">
    <path
       d="m 50,27.5 a 12.5,12.5 0 1 1 -25,0 12.5,12.5 0 1 1 25,0 z"
       transform="matrix(0.76,0,0,0.76,29.477112,981.45967)"
       id="path3154"
       style="fill:#ffffff;fill-opacity:1;stroke:#000000;stroke-width:1.31578946;stroke-linecap:butt;stroke-miterlimit:4;stroke-opacity:1;stroke-dasharray:none" />
    <text
       x="49.860176"
       y="1006.4457"
       id="text3156"
       xml:space="preserve"
       style="font-size:10px;font-style:normal;font-variant:normal;font-weight:bold;font-stretch:normal;line-height:100%;letter-spacing:-1px;word-spacing:0px;fill:#000000;fill-opacity:1;stroke:none;font-family:URW Bookman L;-inkscape-font-specification:Sans Bold"><tspan
         x="49.860176"
         y="1006.4457"
         id="tspan3158"
         style="font-size:12px;line-height:100%">10</tspan></text>
  </g>
  <rect
     width="15.999951"
     height="7.9999213"
     x="78.240982"
     y="-35.819344"
     transform="matrix(0.70711025,0.70710332,-0.70711106,0.70710251,0,0)"
     id="rect3903-5"
     style="fill:#000000;fill-opacity:1;stroke:none" />
  <rect
     width="15.999951"
     height="7.9999213"
     x="70.941521"
     y="55.064247"
     transform="matrix(0.96592709,0.25881432,-0.2588249,0.96592426,0,0)"
     id="rect4464"
     style="fill:#000000;fill-opacity:1;stroke:none" />
  <g
     transform="translate(7.022888,-982.35967)"
     id="g4470">
    <path
       d="m 50,27.5 a 12.5,12.5 0 1 1 -25,0 12.5,12.5 0 1 1 25,0 z"
       transform="matrix(0.76,0,0,0.76,29.477112,981.45967)"
       id="path4472"
       style="fill:#ffffff;fill-opacity:1;stroke:#000000;stroke-width:1.31578946;stroke-linecap:butt;stroke-miterlimit:4;stroke-opacity:1;stroke-dasharray:none" />
    <text
       x="49.860176"
       y="1006.4457"
       id="text4474"
       xml:space="preserve"
       style="font-size:10px;font-style:normal;font-variant:normal;font-weight:bold;font-stretch:normal;line-height:100%;letter-spacing:-1px;word-spacing:0px;fill:#000000;fill-opacity:1;stroke:none;font-family:URW Bookman L;-inkscape-font-specification:Sans Bold"><tspan
         x="49.860176"
         y="1006.4457"
         id="tspan4476"
         style="font-size:12px;line-height:100%">10</tspan></text>
  </g>
</svg>
