<?xml version="1.0" encoding="UTF-8" standalone="no"?>
<!-- Created with Inkscape (http://www.inkscape.org/) -->

<svg
   xmlns:dc="http://purl.org/dc/elements/1.1/"
   xmlns:cc="http://creativecommons.org/ns#"
   xmlns:rdf="http://www.w3.org/1999/02/22-rdf-syntax-ns#"
   xmlns:svg="http://www.w3.org/2000/svg"
   xmlns="http://www.w3.org/2000/svg"
   xmlns:inkscape="http://www.inkscape.org/namespaces/inkscape"
   version="1.1"
   width="116"
   height="100"
   id="svg4113">
  <defs
     id="defs4115">
    <inkscape:path-effect
       effect="skeletal"
       id="path-effect3952" />
    <inkscape:path-effect
       effect="skeletal"
       id="path-effect3948" />
  </defs>
  <metadata
     id="metadata4118">
    <rdf:RDF>
      <cc:Work
         rdf:about="">
        <dc:format>image/svg+xml</dc:format>
        <dc:type
           rdf:resource="http://purl.org/dc/dcmitype/StillImage" />
        <dc:title />
      </cc:Work>
    </rdf:RDF>
  </metadata>
  <g
     transform="translate(0.02288901,-952.35967)"
     id="layer1">
    <path
       d="M 376.67383,464.85011 29.040436,464.8501 -144.77625,163.79074 29.040466,-137.2686 l 347.633394,2e-5 173.81668,301.05935 z"
       transform="matrix(0.16540424,0,0,0.16441952,24.42368,975.42927)"
       id="path3846"
       style="fill:#ffff00;fill-opacity:1;stroke:#000000;stroke-width:6.06343651;stroke-miterlimit:4;stroke-opacity:1;stroke-dasharray:none" />
    <text
       x="71"
       y="91.75"
       transform="translate(-0.02288901,952.35967)"
       id="text3852"
       xml:space="preserve"
       style="font-size:10px;font-style:normal;font-variant:normal;font-weight:normal;font-stretch:normal;line-height:125%;letter-spacing:0px;word-spacing:0px;fill:#000000;fill-opacity:1;stroke:none;font-family:URW Bookman L;-inkscape-font-specification:Sans"><tspan
         id="tspan3854" /></text>
    <text
       x="79"
       y="94"
       transform="translate(-0.02288901,952.35967)"
       id="text3856"
       xml:space="preserve"
       style="font-size:12px;font-style:normal;font-variant:normal;font-weight:bold;font-stretch:normal;line-height:125%;letter-spacing:0px;word-spacing:0px;fill:#000000;fill-opacity:1;stroke:none;font-family:URW Bookman L;-inkscape-font-specification:Sans Bold"><tspan
         id="tspan3858" /></text>
    <text
       x="66.497772"
       y="1049.2454"
       transform="scale(0.9999902,1.0000098)"
       id="text3860"
       xml:space="preserve"
       style="font-size:9.99990177px;font-style:normal;font-variant:normal;font-weight:normal;font-stretch:normal;text-align:center;line-height:100%;letter-spacing:0px;word-spacing:0px;text-anchor:middle;fill:#000000;fill-opacity:1;stroke:none;font-family:URW Bookman L;-inkscape-font-specification:Sans"><tspan
         x="66.497772"
         y="1049.2454"
         id="tspan3864"
         style="font-size:7.99992132px;text-align:start;text-anchor:start">8850</tspan></text>
    <g
       id="g3500">
      <path
         d="m 51.97711,1051.8597 11.3125,0 0,-1.8438 c 10e-7,-11.2266 9.309129,-20.9687 21.6875,-20.9687 3.915634,0 7.735807,1.048 11.0625,2.9687 l 1.40625,0.8125 6.21875,-10.75 -2.4375,-1.4062 c -4.983742,-2.8774 -10.56957,-4.3438 -16.25,-4.3438 -17.813378,0 -32.999999,14.7224 -33,33.6875 l 0,1.8438 z"
         inkscape:connector-curvature="0"
         id="path3773"
         style="font-size:medium;font-style:normal;font-variant:normal;font-weight:normal;font-stretch:normal;text-indent:0;text-align:start;text-decoration:none;line-height:normal;letter-spacing:normal;word-spacing:normal;text-transform:none;direction:ltr;block-progression:tb;writing-mode:lr-tb;text-anchor:start;baseline-shift:baseline;color:#000000;fill:#ffffff;fill-opacity:1;stroke:none;stroke-width:9.31305885;marker:none;visibility:visible;display:inline;overflow:visible;enable-background:accumulate;font-family:Sans;-inkscape-font-specification:Sans" />
      <rect
         width="18"
         height="10"
         x="-933.55762"
         y="445.97021"
         transform="matrix(-0.5,-0.8660254,-0.8660254,0.5,0,0)"
         id="rect3903"
         style="fill:#000000;fill-opacity:1;stroke:#ffffff;stroke-width:2;stroke-linecap:butt;stroke-miterlimit:4;stroke-opacity:1;stroke-dasharray:none" />
      <path
         d="m 53.88336,1051.8597 7.5,0 0,-1.8438 c 10e-7,-12.5164 10.309544,-23.0937 23.59375,-23.0937 4.209766,0 8.334631,1.1074 11.9375,3.1875 l 1.5625,0.9062 4.15625,-7.125 -2.28125,-1.3125 c -4.70756,-2.718 -9.988703,-4.125 -15.375,-4.125 -16.907543,0 -31.093749,13.8871 -31.09375,31.5625 l 0,1.8438 z"
         inkscape:connector-curvature="0"
         id="path3785"
         style="font-size:medium;font-style:normal;font-variant:normal;font-weight:normal;font-stretch:normal;text-indent:0;text-align:start;text-decoration:none;line-height:normal;letter-spacing:normal;word-spacing:normal;text-transform:none;direction:ltr;block-progression:tb;writing-mode:lr-tb;text-anchor:start;baseline-shift:baseline;color:#000000;fill:#000000;fill-opacity:1;stroke:none;stroke-width:6.20870447;marker:none;visibility:visible;display:inline;overflow:visible;enable-background:accumulate;font-family:Sans;-inkscape-font-specification:Sans" />
    </g>
    <path
       d="M 376.67383,464.85011 29.040436,464.8501 -144.77625,163.79074 29.040466,-137.2686 l 347.633394,2e-5 173.81668,301.05935 z"
       transform="matrix(0.16540424,0,0,0.16441952,24.42368,975.42927)"
       id="tile_border"
       style="fill:none;stroke:#000000;stroke-width:6.06343651;stroke-miterlimit:4;stroke-opacity:1;stroke-dasharray:none" />
    <g
       transform="translate(26.999999,-15)"
       id="g4124">
      <path
         d="m 50,27.5 a 12.5,12.5 0 1 1 -25,0 12.5,12.5 0 1 1 25,0 z"
         transform="matrix(0.76,0,0,0.76,29.477112,981.45967)"
         id="path3901"
         style="fill:#ffffff;fill-opacity:1;stroke:#000000;stroke-width:1.31578946;stroke-linecap:butt;stroke-miterlimit:4;stroke-opacity:1;stroke-dasharray:none" />
      <text
         x="50.436176"
         y="1006.4457"
         id="text3897"
         xml:space="preserve"
         style="font-size:10px;font-style:normal;font-variant:normal;font-weight:bold;font-stretch:normal;line-height:100%;letter-spacing:-1px;word-spacing:0px;fill:#000000;fill-opacity:1;stroke:none;font-family:URW Bookman L;-inkscape-font-specification:Sans Bold"><tspan
           x="50.436176"
           y="1006.4457"
           id="tspan3899"
           style="font-size:12px;line-height:100%">20</tspan></text>
    </g>
  </g>
</svg>
