<?xml version="1.0" encoding="UTF-8" standalone="no"?>
<!-- Created with Inkscape (http://www.inkscape.org/) -->

<svg
   xmlns:dc="http://purl.org/dc/elements/1.1/"
   xmlns:cc="http://creativecommons.org/ns#"
   xmlns:rdf="http://www.w3.org/1999/02/22-rdf-syntax-ns#"
   xmlns:svg="http://www.w3.org/2000/svg"
   xmlns="http://www.w3.org/2000/svg"
   xmlns:inkscape="http://www.inkscape.org/namespaces/inkscape"
   version="1.1"
   width="116"
   height="100"
   id="svg4113">
  <defs
     id="defs4115">
    <inkscape:path-effect
       effect="skeletal"
       id="path-effect3952" />
    <inkscape:path-effect
       effect="skeletal"
       id="path-effect3948" />
  </defs>
  <metadata
     id="metadata4118">
    <rdf:RDF>
      <cc:Work
         rdf:about="">
        <dc:format>image/svg+xml</dc:format>
        <dc:type
           rdf:resource="http://purl.org/dc/dcmitype/StillImage" />
        <dc:title></dc:title>
      </cc:Work>
    </rdf:RDF>
  </metadata>
  <path
     d="M 86.750018,99.500032 29.24998,99.50003 0.4999634,49.999995 29.249985,0.49996268 86.750023,0.49996597 115.50004,50 z"
     id="path3846"
     style="fill:#ffff00;fill-opacity:1;stroke:none" />
  <text
     x="71"
     y="91.75"
     id="text3852"
     xml:space="preserve"
     style="font-size:10px;font-style:normal;font-variant:normal;font-weight:normal;font-stretch:normal;line-height:125%;letter-spacing:0px;word-spacing:0px;fill:#000000;fill-opacity:1;stroke:none;font-family:URW Bookman L;-inkscape-font-specification:Sans"><tspan
       id="tspan3854" /></text>
  <text
     x="79"
     y="94"
     id="text3856"
     xml:space="preserve"
     style="font-size:12px;font-style:normal;font-variant:normal;font-weight:bold;font-stretch:normal;line-height:125%;letter-spacing:0px;word-spacing:0px;fill:#000000;fill-opacity:1;stroke:none;font-family:URW Bookman L;-inkscape-font-specification:Sans Bold"><tspan
       id="tspan3858" /></text>
  <text
     x="77.8377"
     y="96.869049"
     transform="scale(0.9999902,1.0000098)"
     id="text3860"
     xml:space="preserve"
     style="font-size:9.99990177px;font-style:normal;font-variant:normal;font-weight:normal;font-stretch:normal;text-align:center;line-height:100%;letter-spacing:0px;word-spacing:0px;writing-mode:lr-tb;text-anchor:middle;fill:#000000;fill-opacity:1;stroke:none;font-family:URW Bookman L;-inkscape-font-specification:URW Bookman L"><tspan
       x="77.8377"
       y="96.869049"
       id="tspan3544">631</tspan></text>
  <g
     transform="matrix(0.5,0.86602541,-0.86602541,0.5,72.301271,-25.229473)"
     id="g3567">
    <path
       d="m 103.90917,69.785383 -5.656245,9.79691 -1.596779,-0.921902 C 86.933627,73.047094 73.842132,76.238 67.652932,86.957992 c -1.957783,3.391019 -2.960304,7.223403 -2.96023,11.064731 l 5.19e-4,1.624099 -12.419154,0.01059 9.14e-4,-2.814019 c 1.5e-5,-5.754773 1.52293,-11.325408 4.363147,-16.244806 C 65.544871,65.171723 85.888137,59.380933 102.3124,68.863483 l 1.59677,0.9219 z"
       id="path3773"
       style="font-size:medium;font-style:normal;font-variant:normal;font-weight:normal;font-stretch:normal;text-indent:0;text-align:start;text-decoration:none;line-height:normal;letter-spacing:normal;word-spacing:normal;text-transform:none;direction:ltr;block-progression:tb;writing-mode:lr-tb;text-anchor:start;baseline-shift:baseline;color:#000000;fill:#ffffff;fill-opacity:1;stroke:none;stroke-width:9.31305885;marker:none;visibility:visible;display:inline;overflow:visible;enable-background:accumulate;font-family:Sans;-inkscape-font-specification:Sans" />
    <rect
       width="18"
       height="10"
       x="91.102539"
       y="-30.344208"
       transform="matrix(0.5,0.8660254,-0.8660254,0.5,0,0)"
       id="rect3903"
       style="fill:#000000;fill-opacity:1;stroke:#ffffff;stroke-width:2;stroke-linecap:butt;stroke-miterlimit:4;stroke-opacity:1;stroke-dasharray:none" />
    <path
       d="m 102.95605,71.436243 -3.749999,6.495194 -1.596779,-0.921902 c -10.83952,-6.258201 -25.154506,-2.618523 -31.796644,8.885957 -2.104827,3.645732 -3.208277,7.771701 -3.208269,11.931915 l 0.0035,1.806281 -8.24854,0.03691 0.004,-2.631885 c -4.8e-5,-5.435884 1.422023,-10.712985 4.11511,-15.377621 8.453805,-14.642381 27.573494,-19.984448 42.880841,-11.146748 l 1.59678,0.921899 z"
       id="path3785"
       style="font-size:medium;font-style:normal;font-variant:normal;font-weight:normal;font-stretch:normal;text-indent:0;text-align:start;text-decoration:none;line-height:normal;letter-spacing:normal;word-spacing:normal;text-transform:none;direction:ltr;block-progression:tb;writing-mode:lr-tb;text-anchor:start;baseline-shift:baseline;color:#000000;fill:#000000;fill-opacity:1;stroke:none;stroke-width:6.20870447;marker:none;visibility:visible;display:inline;overflow:visible;enable-background:accumulate;font-family:Sans;-inkscape-font-specification:Sans" />
  </g>
  <g
     transform="translate(27.022888,-977.35967)"
     id="g3551">
    <path
       d="m 50,27.5 a 12.5,12.5 0 1 1 -25,0 12.5,12.5 0 1 1 25,0 z"
       transform="matrix(0.76,0,0,0.76,29.477112,981.45967)"
       id="path3901"
       style="fill:#ffffff;fill-opacity:1;stroke:#000000;stroke-width:1.31578946;stroke-linecap:butt;stroke-miterlimit:4;stroke-opacity:1;stroke-dasharray:none" />
    <text
       x="49.860176"
       y="1006.4457"
       id="text3897"
       xml:space="preserve"
       style="font-size:10px;font-style:normal;font-variant:normal;font-weight:bold;font-stretch:normal;line-height:100%;letter-spacing:-1px;word-spacing:0px;fill:#000000;fill-opacity:1;stroke:none;font-family:URW Bookman L;-inkscape-font-specification:Sans Bold"><tspan
         x="49.860176"
         y="1006.4457"
         id="tspan3899"
         style="font-size:12px;line-height:100%">10</tspan></text>
  </g>
  <g
     transform="translate(-22.977112,-952.35967)"
     id="g3152">
    <path
       d="m 50,27.5 a 12.5,12.5 0 1 1 -25,0 12.5,12.5 0 1 1 25,0 z"
       transform="matrix(0.76,0,0,0.76,29.477112,981.45967)"
       id="path3154"
       style="fill:#ffffff;fill-opacity:1;stroke:#000000;stroke-width:1.31578946;stroke-linecap:butt;stroke-miterlimit:4;stroke-opacity:1;stroke-dasharray:none" />
    <text
       x="49.860176"
       y="1006.4457"
       id="text3156"
       xml:space="preserve"
       style="font-size:10px;font-style:normal;font-variant:normal;font-weight:bold;font-stretch:normal;line-height:100%;letter-spacing:-1px;word-spacing:0px;fill:#000000;fill-opacity:1;stroke:none;font-family:URW Bookman L;-inkscape-font-specification:Sans Bold"><tspan
         x="49.860176"
         y="1006.4457"
         id="tspan3158"
         style="font-size:12px;line-height:100%">10</tspan></text>
  </g>
  <g
     transform="matrix(-0.49999999,0.86602541,-0.86602541,-0.49999999,130.30127,24.770529)"
     id="g3562">
    <path
       d="m 17.714201,80.222996 -6.0312,-10.446431 C 36.754629,54.32766 51.225191,28.103717 52.515964,0.6268593 L 64.377001,0.6709485 C 63.060954,32.32997 46.495735,62.615891 17.714201,80.222996 z"
       id="path3814"
       style="font-size:medium;font-style:normal;font-variant:normal;font-weight:normal;font-stretch:normal;text-indent:0;text-align:start;text-decoration:none;line-height:normal;letter-spacing:normal;word-spacing:normal;text-transform:none;direction:ltr;block-progression:tb;writing-mode:lr-tb;text-anchor:start;baseline-shift:baseline;color:#000000;fill:#ffffff;fill-opacity:1;stroke:none;stroke-width:12.07257748;marker:none;visibility:visible;display:inline;overflow:visible;enable-background:accumulate;font-family:Sans;-inkscape-font-specification:Sans" />
    <rect
       width="17.999626"
       height="9.9999027"
       x="57.397091"
       y="15.633268"
       transform="matrix(0.70711064,0.70710293,-0.70711063,0.70710293,0,0)"
       id="rect3903-5"
       style="fill:#000000;fill-opacity:1;stroke:#ffffff;stroke-width:2;stroke-linecap:butt;stroke-miterlimit:4;stroke-opacity:1;stroke-dasharray:none" />
    <path
       d="M 16.714209,78.490945 12.682992,71.508616 C 38.371094,55.700083 53.16718,28.790449 54.46174,0.62207142 l 7.953859,0.0266016 C 61.104469,31.61527 44.876697,61.241411 16.714209,78.490945 z"
       id="path3816"
       style="font-size:medium;font-style:normal;font-variant:normal;font-weight:normal;font-stretch:normal;text-indent:0;text-align:start;text-decoration:none;line-height:normal;letter-spacing:normal;word-spacing:normal;text-transform:none;direction:ltr;block-progression:tb;writing-mode:lr-tb;text-anchor:start;baseline-shift:baseline;color:#000000;fill:#000000;fill-opacity:1;stroke:none;stroke-width:8.04838562;marker:none;visibility:visible;display:inline;overflow:visible;enable-background:accumulate;font-family:Sans;-inkscape-font-specification:Sans" />
  </g>
  <path
     d="M 86.750018,99.500032 29.24998,99.50003 0.4999634,49.999995 29.249985,0.49996268 86.750023,0.49996597 115.50004,50 z"
     id="tile_border"
     style="fill:none;stroke:#000000;stroke-width:0.99992824;stroke-miterlimit:4;stroke-opacity:1;stroke-dasharray:none" />
</svg>
