<?xml version="1.0" encoding="UTF-8" standalone="no"?>
<!-- Created with Inkscape (http://www.inkscape.org/) -->

<svg
   xmlns:dc="http://purl.org/dc/elements/1.1/"
   xmlns:cc="http://creativecommons.org/ns#"
   xmlns:rdf="http://www.w3.org/1999/02/22-rdf-syntax-ns#"
   xmlns:svg="http://www.w3.org/2000/svg"
   xmlns="http://www.w3.org/2000/svg"
   xmlns:xlink="http://www.w3.org/1999/xlink"
   xmlns:inkscape="http://www.inkscape.org/namespaces/inkscape"
   version="1.1"
   width="116"
   height="100"
   id="svg4113">
  <defs
     id="defs4115">
    <inkscape:path-effect
       effect="skeletal"
       id="path-effect3952" />
    <inkscape:path-effect
       effect="skeletal"
       id="path-effect3948" />
  </defs>
  <metadata
     id="metadata4118">
    <rdf:RDF>
      <cc:Work
         rdf:about="">
        <dc:format>image/svg+xml</dc:format>
        <dc:type
           rdf:resource="http://purl.org/dc/dcmitype/StillImage" />
        <dc:title></dc:title>
      </cc:Work>
    </rdf:RDF>
  </metadata>
  <path
     d="M 86.750018,99.500032 29.24998,99.50003 0.4999634,49.999995 29.249985,0.49996268 86.750023,0.49996597 115.50004,50 z"
     id="path3846"
     style="fill:#ffff00;fill-opacity:1;stroke:none" />
  <rect
     width="20"
     height="12"
     x="-53.050251"
     y="69.148056"
     transform="matrix(0.5,-0.8660254,0.8660254,0.5,0,0)"
     id="rect3903"
     style="fill:#ffffff;fill-opacity:1;stroke:none" />
  <g
     transform="matrix(0.5,0.86602541,-0.86602541,0.5,72.36728,-25.344613)"
     id="g3270">
    <path
       d="M 101.15962,74.685846 C 110.0151,79.649844 116,89.126 116,100 l 0,0 c 0,16.01626 -12.98374,29 -28.999999,29 -16.016258,0 -29,-12.98374 -29,-29 0,-0.171696 0.0015,-0.343047 0.0045,-0.514038"
       id="path9522"
       style="color:#000000;fill:none;marker:none;visibility:visible;display:inline;overflow:visible;enable-background:accumulate" />
    <path
       d="M 58.004465,99.485962 C 58.27873,83.706858 71.155443,71.000003 87.000001,71.000003 c 5.142254,0 9.971909,1.338397 14.159619,3.685843"
       id="path9509"
       style="color:#000000;fill:none;marker:none;visibility:visible;display:inline;overflow:visible;enable-background:accumulate" />
    <use
       id="use9511"
       style="stroke:#ffffff;stroke-width:12;stroke-miterlimit:4;stroke-dasharray:none"
       x="0"
       y="0"
       width="116"
       height="100"
       xlink:href="#path9509" />
    <use
       id="use9513"
       style="stroke:#000000;stroke-width:8;stroke-miterlimit:4;stroke-dasharray:none"
       x="0"
       y="0"
       width="116"
       height="100"
       xlink:href="#path9509" />
    <use
       id="use9515"
       style="stroke:#ffffff;stroke-width:4;stroke-miterlimit:4;stroke-dasharray:2, 2;stroke-dashoffset:3.2"
       x="0"
       y="0"
       width="116"
       height="100"
       xlink:href="#path9509" />
  </g>
  <text
     x="71"
     y="91.75"
     id="text3852"
     xml:space="preserve"
     style="font-size:10px;font-style:normal;font-variant:normal;font-weight:normal;font-stretch:normal;line-height:125%;letter-spacing:0px;word-spacing:0px;fill:#000000;fill-opacity:1;stroke:none;font-family:URW Bookman L;-inkscape-font-specification:Sans"><tspan
       id="tspan3854" /></text>
  <text
     x="79"
     y="94"
     id="text3856"
     xml:space="preserve"
     style="font-size:12px;font-style:normal;font-variant:normal;font-weight:bold;font-stretch:normal;line-height:125%;letter-spacing:0px;word-spacing:0px;fill:#000000;fill-opacity:1;stroke:none;font-family:URW Bookman L;-inkscape-font-specification:Sans Bold"><tspan
       id="tspan3858" /></text>
  <text
     x="76.916443"
     y="96.895027"
     transform="scale(0.9999902,1.0000098)"
     id="text3860"
     xml:space="preserve"
     style="font-size:9.99990177px;font-style:normal;font-variant:normal;font-weight:normal;font-stretch:normal;text-align:center;line-height:100%;letter-spacing:0px;word-spacing:0px;writing-mode:lr-tb;text-anchor:middle;fill:#000000;fill-opacity:1;stroke:none;font-family:URW Bookman L;-inkscape-font-specification:URW Bookman L"><tspan
       x="76.916443"
       y="96.895027"
       id="tspan4117">72</tspan></text>
  <path
     d="M 86.750018,99.500032 29.24998,99.50003 0.4999634,49.999995 29.249985,0.49996268 86.750023,0.49996597 115.50004,50 z"
     id="tile_border"
     style="fill:none;stroke:#000000;stroke-width:0.99992824;stroke-miterlimit:4;stroke-opacity:1;stroke-dasharray:none" />
  <g
     transform="translate(27.022888,-967.35967)"
     id="g3551">
    <path
       d="m 50,27.5 a 12.5,12.5 0 1 1 -25,0 12.5,12.5 0 1 1 25,0 z"
       transform="matrix(0.76,0,0,0.76,29.477112,981.45967)"
       id="path3901"
       style="fill:#ffffff;fill-opacity:1;stroke:#000000;stroke-width:1.31578946;stroke-linecap:butt;stroke-miterlimit:4;stroke-opacity:1;stroke-dasharray:none" />
    <text
       x="49.860176"
       y="1006.4457"
       id="text3897"
       xml:space="preserve"
       style="font-size:10px;font-style:normal;font-variant:normal;font-weight:bold;font-stretch:normal;line-height:100%;letter-spacing:-1px;word-spacing:0px;fill:#000000;fill-opacity:1;stroke:none;font-family:URW Bookman L;-inkscape-font-specification:Sans Bold"><tspan
         x="49.860176"
         y="1006.4457"
         id="tspan3899"
         style="font-size:12px;line-height:100%">10</tspan></text>
  </g>
  <rect
     width="16"
     height="8"
     x="-51.050251"
     y="71.148056"
     transform="matrix(0.5,-0.86602541,0.8660254,0.50000001,0,0)"
     id="use4113"
     style="fill:#000000;fill-opacity:1;stroke:none" />
</svg>
