<?xml version="1.0" encoding="UTF-8" standalone="no"?>
<!-- Created with Inkscape (http://www.inkscape.org/) -->

<svg
   xmlns:dc="http://purl.org/dc/elements/1.1/"
   xmlns:cc="http://creativecommons.org/ns#"
   xmlns:rdf="http://www.w3.org/1999/02/22-rdf-syntax-ns#"
   xmlns:svg="http://www.w3.org/2000/svg"
   xmlns="http://www.w3.org/2000/svg"
   version="1.1"
   width="30"
   height="30"
   id="svg3081">
  <defs
     id="defs3083">
    <clipPath
       id="clipPath3883">
      <path
         d="m 30.809653,15.226519 a 15.278557,15.278557 0 1 1 -30.55711337,0 15.278557,15.278557 0 1 1 30.55711337,0 z"
         transform="matrix(0.98176812,0,0,0.98176812,-0.24793536,1022.4133)"
         id="path3885"
         style="color:#000000;fill:#a52d84;fill-opacity:1;fill-rule:nonzero;stroke:none;stroke-width:1;marker:none;visibility:visible;display:inline;overflow:visible;enable-background:accumulate" />
    </clipPath>
    <clipPath
       id="clipPath4012">
      <path
         d="m 30.809653,15.226519 a 15.278557,15.278557 0 1 1 -30.55711337,0 15.278557,15.278557 0 1 1 30.55711337,0 z"
         transform="matrix(0.98176812,0,0,0.98176812,-0.24793536,1022.4133)"
         id="path4014"
         style="color:#000000;fill:#a52d84;fill-opacity:1;fill-rule:nonzero;stroke:none;stroke-width:1;marker:none;visibility:visible;display:inline;overflow:visible;enable-background:accumulate" />
    </clipPath>
    <clipPath
       id="clipPath4016">
      <path
         d="m 30.809653,15.226519 a 15.278557,15.278557 0 1 1 -30.55711337,0 15.278557,15.278557 0 1 1 30.55711337,0 z"
         transform="matrix(0.98176812,0,0,0.98176812,-0.24793536,1022.4133)"
         id="path4018"
         style="color:#000000;fill:#a52d84;fill-opacity:1;fill-rule:nonzero;stroke:none;stroke-width:1;marker:none;visibility:visible;display:inline;overflow:visible;enable-background:accumulate" />
    </clipPath>
  </defs>
  <metadata
     id="metadata3086">
    <rdf:RDF>
      <cc:Work
         rdf:about="">
        <dc:format>image/svg+xml</dc:format>
        <dc:type
           rdf:resource="http://purl.org/dc/dcmitype/StillImage" />
        <dc:title></dc:title>
      </cc:Work>
    </rdf:RDF>
  </metadata>
  <path
     d="m 30,15.000011 a 15,15 0 1 1 -30,0 15,15 0 1 1 30,0 z"
     id="path3089"
     style="color:#000000;fill:#ff7700;fill-opacity:1;fill-rule:nonzero;stroke:none;stroke-width:1;marker:none;visibility:visible;display:inline;overflow:visible;enable-background:accumulate" />
  <rect
     width="30"
     height="10"
     x="0"
     y="1032.3622"
     transform="translate(0,-1022.3622)"
     clip-path="url(#clipPath3883)"
     id="rect3859"
     style="color:#000000;fill:#ffffff;fill-opacity:1;fill-rule:nonzero;stroke:none;stroke-width:1;marker:none;visibility:visible;display:inline;overflow:visible;enable-background:accumulate" />
  <text
     x="15.108516"
     y="18.40501"
     id="text3887"
     xml:space="preserve"
     style="font-size:10px;font-style:normal;font-variant:normal;font-weight:bold;font-stretch:normal;text-align:center;line-height:100%;letter-spacing:0px;word-spacing:0px;writing-mode:lr-tb;text-anchor:middle;fill:#000000;fill-opacity:1;stroke:none;font-family:URW Bookman L;-inkscape-font-specification:URW Bookman L Bold"><tspan
       x="15.108516"
       y="18.40501"
       id="tspan4225">ZPB</tspan></text>
</svg>
