<?xml version="1.0" encoding="UTF-8" standalone="no"?>
<!-- Created with Inkscape (http://www.inkscape.org/) -->

<svg
   xmlns:dc="http://purl.org/dc/elements/1.1/"
   xmlns:cc="http://creativecommons.org/ns#"
   xmlns:rdf="http://www.w3.org/1999/02/22-rdf-syntax-ns#"
   xmlns:svg="http://www.w3.org/2000/svg"
   xmlns="http://www.w3.org/2000/svg"
   version="1.1"
   width="22"
   height="22"
   id="svg6424">
  <defs
     id="defs6426" />
  <metadata
     id="metadata6429">
    <rdf:RDF>
      <cc:Work
         rdf:about="">
        <dc:format>image/svg+xml</dc:format>
        <dc:type
           rdf:resource="http://purl.org/dc/dcmitype/StillImage" />
        <dc:title />
      </cc:Work>
    </rdf:RDF>
  </metadata>
  <g
     transform="translate(-239.57142,-745.07647)"
     id="layer1">
    <g
       transform="translate(217.22946,-238.16921)"
       id="g4909">
      <g
         id="g4389">
        <path
           d="m 38.890872,44.580505 a 7.5130095,6.805903 0 1 1 -15.026019,0 7.5130095,6.805903 0 1 1 15.026019,0 z"
           transform="matrix(1.464127,0,0,1.616244,-12.599213,922.19271)"
           id="path3125"
           style="fill:#ffffff;fill-opacity:1;stroke:none" />
        <path
           d="m 38.890872,44.580505 a 7.5130095,6.805903 0 1 1 -15.026019,0 7.5130095,6.805903 0 1 1 15.026019,0 z"
           transform="matrix(1.1313709,0,0,1.2489158,-2.1580377,938.56839)"
           id="path4397"
           style="fill:#ffffff;fill-opacity:1;stroke:#000000;stroke-width:0.84126133;stroke-miterlimit:4;stroke-opacity:1;stroke-dasharray:none" />
        <path
           d="m 38.890872,44.580505 a 7.5130095,6.805903 0 1 1 -15.026019,0 7.5130095,6.805903 0 1 1 15.026019,0 z"
           transform="matrix(0.73206349,0,0,0.80812201,10.371375,958.2192)"
           id="path4907"
           style="fill:#000000;fill-opacity:1;stroke:none" />
      </g>
    </g>
  </g>
</svg>
