<?xml version="1.0" encoding="UTF-8" standalone="no"?>
<!-- Created with Inkscape (http://www.inkscape.org/) -->

<svg
   xmlns:dc="http://purl.org/dc/elements/1.1/"
   xmlns:cc="http://creativecommons.org/ns#"
   xmlns:rdf="http://www.w3.org/1999/02/22-rdf-syntax-ns#"
   xmlns:svg="http://www.w3.org/2000/svg"
   xmlns="http://www.w3.org/2000/svg"
   xmlns:inkscape="http://www.inkscape.org/namespaces/inkscape"
   version="1.1"
   width="116"
   height="100"
   id="svg4113">
  <defs
     id="defs4115">
    <inkscape:path-effect
       effect="skeletal"
       id="path-effect3952" />
    <inkscape:path-effect
       effect="skeletal"
       id="path-effect3948" />
  </defs>
  <metadata
     id="metadata4118">
    <rdf:RDF>
      <cc:Work
         rdf:about="">
        <dc:format>image/svg+xml</dc:format>
        <dc:type
           rdf:resource="http://purl.org/dc/dcmitype/StillImage" />
        <dc:title />
      </cc:Work>
    </rdf:RDF>
  </metadata>
  <g
     transform="translate(0.02288901,-952.35967)"
     id="layer1">
    <path
       d="M 376.67383,464.85011 29.040436,464.8501 -144.77625,163.79074 29.040466,-137.2686 l 347.633394,2e-5 173.81668,301.05935 z"
       transform="matrix(0.16540424,0,0,0.16441952,24.42368,975.42927)"
       id="path3846"
       style="fill:#54d82b;fill-opacity:1;stroke:none" />
    <text
       x="71"
       y="91.75"
       transform="translate(-0.02288901,952.35967)"
       id="text3852"
       xml:space="preserve"
       style="font-size:10px;font-style:normal;font-variant:normal;font-weight:normal;font-stretch:normal;line-height:125%;letter-spacing:0px;word-spacing:0px;fill:#000000;fill-opacity:1;stroke:none;font-family:URW Bookman L;-inkscape-font-specification:Sans"><tspan
         id="tspan3854" /></text>
    <text
       x="79"
       y="94"
       transform="translate(-0.02288901,952.35967)"
       id="text3856"
       xml:space="preserve"
       style="font-size:12px;font-style:normal;font-variant:normal;font-weight:bold;font-stretch:normal;line-height:125%;letter-spacing:0px;word-spacing:0px;fill:#000000;fill-opacity:1;stroke:none;font-family:URW Bookman L;-inkscape-font-specification:Sans Bold"><tspan
         id="tspan3858" /></text>
    <text
       x="66.497772"
       y="1049.2454"
       transform="scale(0.9999902,1.0000098)"
       id="text3860"
       xml:space="preserve"
       style="font-size:9.99990177px;font-style:normal;font-variant:normal;font-weight:normal;font-stretch:normal;text-align:center;line-height:100%;letter-spacing:0px;word-spacing:0px;text-anchor:middle;fill:#000000;fill-opacity:1;stroke:none;font-family:URW Bookman L;-inkscape-font-specification:Sans"><tspan
         x="66.497772"
         y="1049.2454"
         id="tspan3864"
         style="font-size:7.99992132px;text-align:start;text-anchor:start">22</tspan></text>
    <g
       transform="matrix(0.5,-0.86602541,0.86602541,0.5,-838.97835,551.56622)"
       id="g6457">
      <path
         d="m 12.068339,1022.1368 6.03125,10.4464 c 25.915063,-13.9884 55.861005,-13.4084 80.302053,-0.7878 l 5.892388,-10.2941 c -28.075548,-14.6898 -62.586603,-15.4867 -92.225691,0.6355 z"
         inkscape:connector-curvature="0"
         id="path3814"
         style="font-size:medium;font-style:normal;font-variant:normal;font-weight:normal;font-stretch:normal;text-indent:0;text-align:start;text-decoration:none;line-height:normal;letter-spacing:normal;word-spacing:normal;text-transform:none;direction:ltr;block-progression:tb;writing-mode:lr-tb;text-anchor:start;baseline-shift:baseline;color:#000000;fill:#ffffff;fill-opacity:1;stroke:none;stroke-width:12.07257748;marker:none;visibility:visible;display:inline;overflow:visible;enable-background:accumulate;font-family:Sans;-inkscape-font-specification:Sans" />
      <path
         d="m 13.068339,1023.8688 4.03125,6.9823 c 26.534749,-14.3424 57.23728,-13.7015 82.279096,-0.7385 l 3.953925,-6.9016 c -27.47343,-14.3478 -61.244374,-15.1071 -90.264271,0.6578 z"
         inkscape:connector-curvature="0"
         id="path3816"
         style="font-size:medium;font-style:normal;font-variant:normal;font-weight:normal;font-stretch:normal;text-indent:0;text-align:start;text-decoration:none;line-height:normal;letter-spacing:normal;word-spacing:normal;text-transform:none;direction:ltr;block-progression:tb;writing-mode:lr-tb;text-anchor:start;baseline-shift:baseline;color:#000000;fill:#000000;fill-opacity:1;stroke:none;stroke-width:8.04838562;marker:none;visibility:visible;display:inline;overflow:visible;enable-background:accumulate;font-family:Sans;-inkscape-font-specification:Sans" />
    </g>
    <g
       transform="matrix(-1,0,0,-1,115.95476,2004.719)"
       id="g3009">
      <path
         d="m 52.34375,99.5 11.3125,0 0,-1.84375 c 10e-7,-11.2266 9.309129,-20.96875 21.6875,-20.96875 3.915634,0 7.735807,1.04805 11.0625,2.96875 l 1.40625,0.8125 6.21875,-10.75 -2.4375,-1.40625 c -4.983742,-2.8774 -10.56957,-4.34375 -16.25,-4.34375 -17.813378,0 -32.999999,14.7224 -33,33.6875 l 0,1.84375 z"
         inkscape:connector-curvature="0"
         transform="translate(-0.02288901,952.35967)"
         id="path3773"
         style="font-size:medium;font-style:normal;font-variant:normal;font-weight:normal;font-stretch:normal;text-indent:0;text-align:start;text-decoration:none;line-height:normal;letter-spacing:normal;word-spacing:normal;text-transform:none;direction:ltr;block-progression:tb;writing-mode:lr-tb;text-anchor:start;baseline-shift:baseline;color:#000000;fill:#ffffff;fill-opacity:1;stroke:none;stroke-width:9.31305885;marker:none;visibility:visible;display:inline;overflow:visible;enable-background:accumulate;font-family:Sans;-inkscape-font-specification:Sans" />
      <path
         d="m 54.25,99.5 7.5,0 0,-1.84375 c 10e-7,-12.5164 10.309544,-23.09375 23.59375,-23.09375 4.209766,0 8.334631,1.1074 11.9375,3.1875 l 1.5625,0.90625 4.15625,-7.125 -2.28125,-1.3125 c -4.70756,-2.718 -9.988703,-4.125 -15.375,-4.125 -16.907543,0 -31.093749,13.8871 -31.09375,31.5625 l 0,1.84375 z"
         inkscape:connector-curvature="0"
         transform="translate(-0.02288901,952.35967)"
         id="path3785"
         style="font-size:medium;font-style:normal;font-variant:normal;font-weight:normal;font-stretch:normal;text-indent:0;text-align:start;text-decoration:none;line-height:normal;letter-spacing:normal;word-spacing:normal;text-transform:none;direction:ltr;block-progression:tb;writing-mode:lr-tb;text-anchor:start;baseline-shift:baseline;color:#000000;fill:#000000;fill-opacity:1;stroke:none;stroke-width:6.20870447;marker:none;visibility:visible;display:inline;overflow:visible;enable-background:accumulate;font-family:Sans;-inkscape-font-specification:Sans" />
    </g>
    <path
       d="M 376.67383,464.85011 29.040436,464.8501 -144.77625,163.79074 29.040466,-137.2686 l 347.633394,2e-5 173.81668,301.05935 z"
       transform="matrix(0.16540424,0,0,0.16441952,24.42368,975.42927)"
       id="tile_border"
       style="fill:none;stroke:#000000;stroke-width:6.06343651;stroke-miterlimit:4;stroke-opacity:1;stroke-dasharray:none" />
  </g>
</svg>
