<?xml version="1.0" encoding="UTF-8" standalone="no"?>
<!-- Created with Inkscape (http://www.inkscape.org/) -->

<svg
   xmlns:dc="http://purl.org/dc/elements/1.1/"
   xmlns:cc="http://creativecommons.org/ns#"
   xmlns:rdf="http://www.w3.org/1999/02/22-rdf-syntax-ns#"
   xmlns:svg="http://www.w3.org/2000/svg"
   xmlns="http://www.w3.org/2000/svg"
   xmlns:inkscape="http://www.inkscape.org/namespaces/inkscape"
   version="1.1"
   width="116"
   height="100"
   id="svg4113">
  <defs
     id="defs4115">
    <inkscape:path-effect
       effect="skeletal"
       id="path-effect3952" />
    <inkscape:path-effect
       effect="skeletal"
       id="path-effect3948" />
  </defs>
  <metadata
     id="metadata4118">
    <rdf:RDF>
      <cc:Work
         rdf:about="">
        <dc:format>image/svg+xml</dc:format>
        <dc:type
           rdf:resource="http://purl.org/dc/dcmitype/StillImage" />
        <dc:title />
      </cc:Work>
    </rdf:RDF>
  </metadata>
  <g
     transform="translate(0.02288901,-952.35967)"
     id="layer1">
    <path
       d="M 376.67383,464.85011 29.040436,464.8501 -144.77625,163.79074 29.040466,-137.2686 l 347.633394,2e-5 173.81668,301.05935 z"
       transform="matrix(0.16540424,0,0,0.16441952,24.42368,975.42927)"
       id="path3846"
       style="fill:#54d82b;fill-opacity:1;stroke:none" />
    <text
       x="71"
       y="91.75"
       transform="translate(-0.02288901,952.35967)"
       id="text3852"
       xml:space="preserve"
       style="font-size:10px;font-style:normal;font-variant:normal;font-weight:normal;font-stretch:normal;line-height:125%;letter-spacing:0px;word-spacing:0px;fill:#000000;fill-opacity:1;stroke:none;font-family:URW Bookman L;-inkscape-font-specification:Sans"><tspan
         id="tspan3854" /></text>
    <text
       x="79"
       y="94"
       transform="translate(-0.02288901,952.35967)"
       id="text3856"
       xml:space="preserve"
       style="font-size:12px;font-style:normal;font-variant:normal;font-weight:bold;font-stretch:normal;line-height:125%;letter-spacing:0px;word-spacing:0px;fill:#000000;fill-opacity:1;stroke:none;font-family:URW Bookman L;-inkscape-font-specification:Sans Bold"><tspan
         id="tspan3858" /></text>
    <text
       x="77.472816"
       y="1047.3596"
       id="text3860"
       xml:space="preserve"
       style="font-size:10px;font-style:normal;font-variant:normal;font-weight:normal;font-stretch:normal;text-align:center;line-height:100%;letter-spacing:0px;word-spacing:0px;text-anchor:middle;fill:#000000;fill-opacity:1;stroke:none;font-family:URW Bookman L;-inkscape-font-specification:Sans"><tspan
         x="77.472816"
         y="1047.3596"
         id="tspan3864">791</tspan></text>
    <path
       d="m 50,27.5 a 12.5,12.5 0 1 1 -25,0 12.5,12.5 0 1 1 25,0 z"
       transform="matrix(0.76,0,0,0.76,9.4649247,1016.9935)"
       id="path3901"
       style="fill:#ffffff;fill-opacity:1;stroke:#000000;stroke-width:1.31578946;stroke-linecap:butt;stroke-miterlimit:4;stroke-opacity:1;stroke-dasharray:none" />
    <text
       x="29.965986"
       y="1041.9795"
       id="text3897"
       xml:space="preserve"
       style="font-size:10px;font-style:normal;font-variant:normal;font-weight:bold;font-stretch:normal;line-height:100%;letter-spacing:-1px;word-spacing:0px;fill:#000000;fill-opacity:1;stroke:none;font-family:URW Bookman L;-inkscape-font-specification:Sans Bold"><tspan
         x="29.965986"
         y="1041.9795"
         id="tspan3899"
         style="font-size:12px;line-height:100%;letter-spacing:0px">60</tspan></text>
    <g
       transform="matrix(-1,-1.34294e-8,1.34294e-8,-1,115.95432,2004.7194)"
       id="g3408">
      <rect
         width="12"
         height="50"
         x="51.977112"
         y="1002.3597"
         id="rect3410"
         style="fill:#ffffff;fill-opacity:1;stroke:#000000;stroke-width:0;stroke-linecap:butt;stroke-miterlimit:4;stroke-opacity:1;stroke-dasharray:none" />
      <rect
         width="8"
         height="50"
         x="53.977112"
         y="1002.3597"
         id="rect3412"
         style="fill:#000000;fill-opacity:1;stroke:#000000;stroke-width:0;stroke-linecap:butt;stroke-miterlimit:4;stroke-opacity:1;stroke-dasharray:none" />
    </g>
    <g
       transform="translate(7.4843861e-5,4.8084173e-6)"
       id="g3402">
      <rect
         width="12"
         height="50"
         x="51.977112"
         y="1002.3597"
         id="rect3404"
         style="fill:#ffffff;fill-opacity:1;stroke:#000000;stroke-width:0;stroke-linecap:butt;stroke-miterlimit:4;stroke-opacity:1;stroke-dasharray:none" />
      <rect
         width="8"
         height="50"
         x="53.977112"
         y="1002.3597"
         id="rect3406"
         style="fill:#000000;fill-opacity:1;stroke:#000000;stroke-width:0;stroke-linecap:butt;stroke-miterlimit:4;stroke-opacity:1;stroke-dasharray:none" />
    </g>
    <g
       transform="matrix(-0.5,-0.86602541,0.86602541,-0.5,-781.10341,1553.7492)"
       id="g3255">
      <rect
         width="12"
         height="50"
         x="51.977112"
         y="1002.3597"
         id="rect3985"
         style="fill:#ffffff;fill-opacity:1;stroke:#000000;stroke-width:0;stroke-linecap:butt;stroke-miterlimit:4;stroke-opacity:1;stroke-dasharray:none" />
      <rect
         width="8"
         height="50"
         x="53.977112"
         y="1002.3597"
         id="rect3987"
         style="fill:#000000;fill-opacity:1;stroke:#000000;stroke-width:0;stroke-linecap:butt;stroke-miterlimit:4;stroke-opacity:1;stroke-dasharray:none" />
    </g>
    <g
       transform="matrix(-0.50000001,0.86602541,-0.86602541,-0.50000001,955.03468,1453.33)"
       id="g8000">
      <rect
         width="12"
         height="50"
         x="51.977112"
         y="1002.3597"
         id="rect8002"
         style="fill:#ffffff;fill-opacity:1;stroke:#000000;stroke-width:0;stroke-linecap:butt;stroke-miterlimit:4;stroke-opacity:1;stroke-dasharray:none" />
      <rect
         width="8"
         height="50"
         x="53.977112"
         y="1002.3597"
         id="rect8004"
         style="fill:#000000;fill-opacity:1;stroke:#000000;stroke-width:0;stroke-linecap:butt;stroke-miterlimit:4;stroke-opacity:1;stroke-dasharray:none" />
    </g>
    <g
       transform="matrix(0.5,0.86602541,-0.86602541,0.5,897.05765,450.9702)"
       id="g7994">
      <rect
         width="12"
         height="50"
         x="51.977112"
         y="1002.3597"
         id="rect7996"
         style="fill:#ffffff;fill-opacity:1;stroke:#000000;stroke-width:0;stroke-linecap:butt;stroke-miterlimit:4;stroke-opacity:1;stroke-dasharray:none" />
      <rect
         width="8"
         height="50"
         x="53.977112"
         y="1002.3597"
         id="rect7998"
         style="fill:#000000;fill-opacity:1;stroke:#000000;stroke-width:0;stroke-linecap:butt;stroke-miterlimit:4;stroke-opacity:1;stroke-dasharray:none" />
    </g>
    <path
       d="M 376.67383,464.85011 29.040436,464.8501 -144.77625,163.79074 29.040466,-137.2686 l 347.633394,2e-5 173.81668,301.05935 z"
       transform="matrix(0.16540424,0,0,0.16441952,24.42368,975.42927)"
       id="tile_border"
       style="fill:none;stroke:#000000;stroke-width:6.06343651;stroke-miterlimit:4;stroke-opacity:1;stroke-dasharray:none" />
    <text
       x="30.457111"
       y="973.53162"
       id="text3281"
       xml:space="preserve"
       style="font-size:24px;font-style:normal;font-variant:normal;font-weight:bold;font-stretch:normal;text-align:start;line-height:100%;letter-spacing:0px;word-spacing:0px;writing-mode:lr-tb;text-anchor:start;fill:#000000;fill-opacity:1;stroke:none;font-family:URW Bookman L;-inkscape-font-specification:Sans Bold"><tspan
         x="30.457111"
         y="973.53162"
         id="tspan3283"
         style="font-size:24px">N</tspan></text>
    <g
       transform="matrix(0.8660254,0.5,-0.49999414,0.86601526,628.49844,147.24694)"
       id="g5340">
      <path
         d="m -66.866557,988.32076 c -0.36178,0.006 -0.73189,0.0351 -1.09375,0.0625 -0.06301,0.005 -0.12456,0.0254 -0.1875,0.0312 -1.08062,0.0929 -2.1553,0.27135 -3.21875,0.5625 -0.08233,0.0226 -0.16795,0.0387 -0.25,0.0625 -1.00187,0.28964 -1.97396,0.68342 -2.9375,1.15625 -0.2193,0.10548 -0.44063,0.19837 -0.65625,0.3125 -0.15422,0.0833 -0.31597,0.16179 -0.46875,0.25 -0.17229,0.0995 -0.33223,0.20832 -0.5,0.3125 -0.22582,0.13723 -0.43553,0.29045 -0.65625,0.4375 -0.18622,0.12702 -0.38237,0.24213 -0.5625,0.375 -2.1667,1.55779 -4.06675,3.61129 -5.5,6.09375 l -16,27.68754 c -0.75954,1.3155 -1.324223,2.7064 -1.750003,4.0937 -0.0234,0.073 -0.04,0.1457 -0.0625,0.2188 -0.13451,0.4572 -0.27561,0.914 -0.375,1.375 -0.0529,0.2375 -0.0815,0.4778 -0.125,0.7187 -0.0702,0.3992 -0.14296,0.7876 -0.1875,1.1875 -0.0174,0.1548 -0.0177,0.3128 -0.0312,0.4688 -0.0406,0.4703 -0.088,0.9373 -0.0937,1.4062 -6.4e-4,0.063 0,0.1247 0,0.1875 0,0.1262 0.0287,0.2494 0.0312,0.375 0.007,0.4167 0.0282,0.8365 0.0625,1.25 0.0185,0.2094 0.037,0.4177 0.0625,0.625 0.049,0.42 0.11075,0.8356 0.1875,1.25 0.0327,0.1681 0.0564,0.3336 0.0937,0.5 1.05,4.9308 4.056653,9.3708 8.718753,12.0625 2.96847,1.7138 6.19972,2.4665 9.40625,2.4063 0.14788,0 0.28878,0.031 0.4375,0.031 l 32,0 c 0.14872,0 0.28962,-0.028 0.4375,-0.031 3.206528,0.06 6.437784,-0.6925 9.40625,-2.4063 4.662101,-2.6917 7.668746,-7.1317 8.71875,-12.0625 0.03491,-0.1639 0.0632,-0.335 0.09375,-0.5 0.07675,-0.4144 0.138508,-0.83 0.1875,-1.25 0.02448,-0.2098 0.04502,-0.4141 0.0625,-0.625 0.03427,-0.4135 0.0554,-0.8333 0.0625,-1.25 0.0032,-0.185 0.0335,-0.377 0.03125,-0.5625 -0.0057,-0.4689 -0.05315,-0.9359 -0.09375,-1.4062 -0.01358,-0.1574 -0.01373,-0.3115 -0.03125,-0.4688 -0.04454,-0.3999 -0.117279,-0.7883 -0.1875,-1.1875 -0.04231,-0.2405 -0.07328,-0.4789 -0.125,-0.7187 -0.09939,-0.461 -0.240493,-0.9178 -0.375,-1.375 -0.02132,-0.072 -0.04029,-0.1464 -0.0625,-0.2188 -0.42578,-1.3873 -0.990463,-2.7782 -1.75,-4.0937 l -16,-27.68754 c -1.5554,-2.69403 -3.66078,-4.86865 -6.0625,-6.46875 -0.37797,-0.25782 -0.7535,-0.51747 -1.15625,-0.75 -0.15278,-0.0882 -0.31453,-0.16672 -0.46875,-0.25 -0.21562,-0.11413 -0.43695,-0.20702 -0.65625,-0.3125 -2.12193,-1.04129 -4.3463,-1.64263 -6.59375,-1.8125 -0.12541,-0.0103 -0.24936,0.008 -0.375,0 -0.35403,-0.0195 -0.70884,-0.0636 -1.0625,-0.0625 -0.11558,-3.7e-4 -0.2281,-0.002 -0.34375,0 z"
         inkscape:connector-curvature="0"
         id="rect5291"
         style="color:#000000;fill:#ffffff;fill-opacity:1;fill-rule:nonzero;stroke:none;stroke-width:1;marker:none;visibility:visible;display:inline;overflow:visible;enable-background:accumulate" />
      <path
         d="m -66.953964,990.28363 c -0.102009,0.003 -0.20577,0.0261 -0.307835,0.0307 -0.320076,0.0146 -0.636305,0.0286 -0.954288,0.0615 -0.122342,0.0126 -0.247133,0.0154 -0.369402,0.0307 -0.08192,0.0103 -0.164539,0.0193 -0.246268,0.0307 -0.308825,0.0435 -0.617918,0.0932 -0.923504,0.15372 -0.248705,0.0491 -0.491257,0.12372 -0.738804,0.18445 -0.433684,0.10659 -0.868996,0.22804 -1.292906,0.36892 -0.531358,0.17659 -1.057845,0.38542 -1.569958,0.61486 -0.410147,0.18375 -0.80525,0.39788 -1.200556,0.61486 -0.109237,0.0598 -0.230153,0.0912 -0.338618,0.15371 -0.125014,0.0721 -0.246963,0.14046 -0.369402,0.2152 -0.119326,0.0732 -0.22098,0.16967 -0.338619,0.24595 -0.336745,0.21706 -0.668985,0.43962 -0.985071,0.67634 -0.437788,0.32788 -0.864758,0.6826 -1.262123,1.04526 -0.414883,0.37865 -0.799979,0.75548 -1.169772,1.16824 -0.761697,0.85017 -1.406532,1.79729 -1.970144,2.76686 -0.213616,0.36748 -0.462196,0.72549 -0.646453,1.1067 l -15.022341,26.0393 -0.584886,0.9837 c -0.254201,0.4397 -0.493903,0.8888 -0.708021,1.3527 -0.03883,0.084 -0.0858,0.1619 -0.123133,0.246 -0.129508,0.2932 -0.256527,0.5897 -0.369402,0.8916 -0.09961,0.2645 -0.191631,0.5323 -0.277052,0.7993 -0.0099,0.031 -0.02111,0.061 -0.03078,0.092 -0.133827,0.4268 -0.24052,0.8596 -0.338619,1.2912 -0.120033,0.5355 -0.209507,1.0753 -0.277051,1.6293 -0.06396,0.5246 -0.108577,1.0599 -0.123134,1.5986 -0.0041,0.1543 -0.03078,0.306 -0.03078,0.4612 0,0.3826 0.03648,0.7615 0.06156,1.1375 0.0014,0.021 -0.0015,0.041 0,0.061 0.03656,0.5203 0.101944,1.0314 0.184701,1.5371 0.0033,0.02 -0.0033,0.041 0,0.061 0.07709,0.4607 0.19409,0.9059 0.307834,1.3527 0.03174,0.1239 0.05778,0.2459 0.09235,0.3689 0.119339,0.4278 0.248532,0.8475 0.400185,1.2605 0.01262,0.034 0.04872,0.058 0.06157,0.092 0.155269,0.4145 0.306108,0.8318 0.492536,1.2297 0.05867,0.1246 0.122896,0.2458 0.184701,0.3689 0.215298,0.4316 0.457479,0.8514 0.70802,1.2604 0.283249,0.4626 0.567099,0.9215 0.892721,1.3527 0.335967,0.445 0.699415,0.852 1.077422,1.2605 0.370449,0.4003 0.761909,0.7752 1.169773,1.1375 0.846577,0.7523 1.782172,1.4289 2.770513,1.9983 1.393558,0.8029 2.881811,1.4064 4.494389,1.7831 0.09476,0.023 0.182112,0.071 0.277052,0.092 0.249711,0.054 0.515799,0.081 0.769587,0.123 0.346992,0.06 0.698649,0.1161 1.046638,0.1536 0.0929,0.01 0.18412,-0.01 0.277052,0 0.455329,0.041 0.899897,0.089 1.354473,0.092 0.04197,3e-4 0.08109,0 0.123134,0 l 32.507362,0 c 0.572059,-5e-4 1.150744,-0.033 1.723875,-0.092 0.02045,0 0.04114,0 0.06157,0 0.537673,-0.058 1.066116,-0.1344 1.600741,-0.2459 0.09389,-0.019 0.183749,-0.041 0.277052,-0.061 0.06258,-0.014 0.122197,-0.046 0.1847,-0.061 3.31434,-0.7741 6.240162,-2.5079 8.465459,-4.9189 0.02514,-0.028 0.03663,-0.065 0.06157,-0.093 1.421501,-1.5605 2.573932,-3.3923 3.324617,-5.4107 0.0081,-0.022 0.02282,-0.04 0.03078,-0.061 0.137426,-0.3742 0.258454,-0.7511 0.369402,-1.1374 0.120516,-0.4168 0.220063,-0.8357 0.307835,-1.2606 0.01235,-0.061 0.01908,-0.1235 0.03078,-0.1844 0.05377,-0.2758 0.114102,-0.5516 0.153918,-0.83 0.05551,-0.3949 0.09552,-0.7957 0.123134,-1.199 0.02686,-0.3837 0.03061,-0.7822 0.03078,-1.1683 0,-0.052 4.63e-4,-0.1021 0,-0.1536 -0.0021,-0.2363 -0.01862,-0.4706 -0.03078,-0.7072 -0.0203,-0.4025 -0.04428,-0.8045 -0.09235,-1.1989 -0.0548,-0.4368 -0.125248,-0.8874 -0.215484,-1.322 -0.02113,-0.1036 -0.03855,-0.2044 -0.06157,-0.3074 -0.03058,-0.1345 -0.08911,-0.2656 -0.123134,-0.3996 -0.380909,-1.5211 -0.959566,-2.9516 -1.723875,-4.2734 l -0.307835,-0.5225 c -0.09692,-0.1542 -0.175281,-0.3105 -0.277052,-0.4612 l -15.083908,-26.1008 -0.584886,-1.04521 c -0.284856,-0.49031 -0.587426,-0.98297 -0.923505,-1.44492 -0.290384,-0.39914 -0.595701,-0.79334 -0.923504,-1.16824 -0.05283,-0.0604 -0.100127,-0.12471 -0.153918,-0.18445 -0.243583,-0.27343 -0.511037,-0.51408 -0.769587,-0.76858 -0.171983,-0.16754 -0.343093,-0.33091 -0.523319,-0.49189 -0.02152,-0.0195 -0.03995,-0.0422 -0.06157,-0.0615 -0.336192,-0.29713 -0.682521,-0.58794 -1.046639,-0.8608 -0.434137,-0.32534 -0.88146,-0.63453 -1.354473,-0.92229 -0.115152,-0.0701 -0.221196,-0.1475 -0.338618,-0.2152 -0.241035,-0.13898 -0.494076,-0.24314 -0.738804,-0.36892 -0.114206,-0.0587 -0.223674,-0.12862 -0.338618,-0.18446 -0.251673,-0.1226 -0.512525,-0.22854 -0.769588,-0.33817 -0.396392,-0.16906 -0.792964,-0.32333 -1.200555,-0.46114 -0.05286,-0.0179 -0.100888,-0.0442 -0.153918,-0.0615 -0.439353,-0.14368 -0.87405,-0.26201 -1.32369,-0.36892 -0.06273,-0.0149 -0.121798,-0.0473 -0.184701,-0.0615 -0.113547,-0.0258 -0.224837,-0.0382 -0.338618,-0.0615 -0.336805,-0.0688 -0.675057,-0.13648 -1.015855,-0.18445 -0.20374,-0.0287 -0.410789,-0.0403 -0.61567,-0.0615 -0.317983,-0.0329 -0.634212,-0.0469 -0.954288,-0.0615 -0.247384,-0.0112 -0.491859,-0.0305 -0.738804,-0.0307 -0.155405,-1.6e-4 -0.30614,-0.004 -0.461752,0 z"
         inkscape:connector-curvature="0"
         id="rect5284"
         style="color:#000000;fill:#ffffff;fill-opacity:1;fill-rule:nonzero;stroke:#000000;stroke-width:1.00000584;stroke-linecap:butt;stroke-linejoin:miter;stroke-miterlimit:0;stroke-opacity:1;stroke-dasharray:none;stroke-dashoffset:0;marker:none;visibility:visible;display:inline;overflow:visible;enable-background:accumulate" />
      <path
         d="m 50,27.5 a 12.5,12.5 0 1 1 -25,0 12.5,12.5 0 1 1 25,0 z"
         transform="matrix(-1.1429627,0.65988981,-0.65988981,-1.1429627,-22.014819,1042.0453)"
         id="use5246"
         style="fill:#ffffff;fill-opacity:1;stroke:#000000;stroke-width:0.75770682;stroke-linecap:butt;stroke-miterlimit:4;stroke-opacity:1;stroke-dasharray:none" />
      <path
         d="m 50,27.5 a 12.5,12.5 0 1 1 -25,0 12.5,12.5 0 1 1 25,0 z"
         transform="matrix(-1.1429627,0.65988981,-0.65988981,-1.1429627,-5.5148178,1013.4663)"
         id="use5248"
         style="fill:#ffffff;fill-opacity:1;stroke:#000000;stroke-width:0.75770682;stroke-linecap:butt;stroke-miterlimit:4;stroke-opacity:1;stroke-dasharray:none" />
      <path
         d="m 50,27.5 a 12.5,12.5 0 1 1 -25,0 12.5,12.5 0 1 1 25,0 z"
         transform="matrix(-1.1429627,0.65988981,-0.65988981,-1.1429627,10.985181,1042.0453)"
         id="use5250"
         style="fill:#ffffff;fill-opacity:1;stroke:#000000;stroke-width:0.75770682;stroke-linecap:butt;stroke-miterlimit:4;stroke-opacity:1;stroke-dasharray:none" />
    </g>
  </g>
</svg>
