<?xml version="1.0" encoding="UTF-8" standalone="no"?>
<!-- Created with Inkscape (http://www.inkscape.org/) -->

<svg
   xmlns:dc="http://purl.org/dc/elements/1.1/"
   xmlns:cc="http://creativecommons.org/ns#"
   xmlns:rdf="http://www.w3.org/1999/02/22-rdf-syntax-ns#"
   xmlns:svg="http://www.w3.org/2000/svg"
   xmlns="http://www.w3.org/2000/svg"
   xmlns:sodipodi="http://sodipodi.sourceforge.net/DTD/sodipodi-0.dtd"
   xmlns:inkscape="http://www.inkscape.org/namespaces/inkscape"
   width="116"
   height="100"
   id="svg4113"
   version="1.1"
   inkscape:version="0.48.5 r10040"
   sodipodi:docname="tile795.svg"
   inkscape:export-filename="/home/ojbh/Documents/code/board18-gameboxes/library/typeFtiles/brownTiles/tile795.png"
   inkscape:export-xdpi="89.999992"
   inkscape:export-ydpi="89.999992">
  <defs
     id="defs4115">
    <inkscape:path-effect
       effect="skeletal"
       id="path-effect3952"
       is_visible="true"
       pattern="M 0,5 C 0,2.24 2.24,0 5,0 7.76,0 10,2.24 10,5 10,7.76 7.76,10 5,10 2.24,10 0,7.76 0,5 z"
       copytype="single_stretched"
       prop_scale="1"
       scale_y_rel="false"
       spacing="0"
       normal_offset="0"
       tang_offset="0"
       prop_units="false"
       vertical_pattern="false"
       fuse_tolerance="0" />
    <inkscape:path-effect
       effect="skeletal"
       id="path-effect3948"
       is_visible="true"
       pattern="M 0,5 C 0,2.24 2.24,0 5,0 7.76,0 10,2.24 10,5 10,7.76 7.76,10 5,10 2.24,10 0,7.76 0,5 z"
       copytype="single_stretched"
       prop_scale="1"
       scale_y_rel="false"
       spacing="0"
       normal_offset="0"
       tang_offset="0"
       prop_units="false"
       vertical_pattern="false"
       fuse_tolerance="0" />
  </defs>
  <sodipodi:namedview
     id="base"
     pagecolor="#ffffff"
     bordercolor="#666666"
     borderopacity="1.0"
     inkscape:pageopacity="0.0"
     inkscape:pageshadow="2"
     inkscape:zoom="4"
     inkscape:cx="25.53656"
     inkscape:cy="54.039666"
     inkscape:document-units="px"
     inkscape:current-layer="layer1"
     showgrid="true"
     fit-margin-top="0"
     fit-margin-left="0"
     fit-margin-right="0"
     fit-margin-bottom="0"
     inkscape:showpageshadow="false"
     inkscape:window-width="1366"
     inkscape:window-height="721"
     inkscape:window-x="-2"
     inkscape:window-y="-3"
     inkscape:window-maximized="1"
     showguides="true"
     inkscape:guide-bbox="true"
     inkscape:snap-grids="false">
    <sodipodi:guide
       orientation="1,0"
       position="58,50"
       id="guide4918" />
    <sodipodi:guide
       orientation="-0.5,0.8660254"
       position="58,50"
       id="guide4920" />
    <sodipodi:guide
       orientation="-0.5,-0.8660254"
       position="58,50"
       id="guide4922" />
    <inkscape:grid
       type="xygrid"
       id="grid3962"
       empspacing="1"
       visible="true"
       enabled="true"
       snapvisiblegridlinesonly="true" />
  </sodipodi:namedview>
  <metadata
     id="metadata4118">
    <rdf:RDF>
      <cc:Work
         rdf:about="">
        <dc:format>image/svg+xml</dc:format>
        <dc:type
           rdf:resource="http://purl.org/dc/dcmitype/StillImage" />
        <dc:title></dc:title>
      </cc:Work>
    </rdf:RDF>
  </metadata>
  <g
     inkscape:label="Layer 1"
     inkscape:groupmode="layer"
     id="layer1"
     transform="translate(0.02288901,-952.35967)">
    <path
       inkscape:label="#path4507"
       sodipodi:type="star"
       id="path3846"
       sodipodi:sides="6"
       sodipodi:cx="202.85715"
       sodipodi:cy="163.79076"
       sodipodi:r1="347.63339"
       sodipodi:r2="173.8167"
       sodipodi:arg1="1.0471976"
       sodipodi:arg2="1.5707963"
       inkscape:flatsided="true"
       inkscape:rounded="0"
       inkscape:randomized="0"
       d="M 376.67383,464.85011 29.040436,464.8501 -144.77625,163.79074 29.040466,-137.2686 l 347.633394,2e-5 173.81668,301.05935 z"
       style="fill:#aa722a;fill-opacity:1;stroke:none;stroke-width:6.06343650999999983;stroke-miterlimit:4;stroke-opacity:1;stroke-dasharray:none"
       transform="matrix(0.16540424,0,0,0.16441952,24.42368,975.42927)" />
    <path
       id="path3996"
       d="m 88.976677,986.59674 c 8e-6,-8.41532 -6.82197,-15.23728 -15.237277,-15.23729 -0.179222,2e-5 -0.347725,0.0267 -0.525433,0.0328 l -6e-6,-0.0328 -30.474744,10e-6 3.47e-4,0.0327 c -0.177572,-0.006 -0.345975,-0.0329 -0.525299,-0.0328 -8.415359,-3e-5 -15.237315,6.82196 -15.237288,15.23728 -3.25e-4,0.17937 0.026,0.34769 0.03201,0.5254 l -0.03208,-3.1e-4 2.5e-5,30.47448 0.0326,-0 c -0.01039,0.1779 -0.03197,0.3462 -0.03197,0.5254 -1.2e-5,8.4153 6.821916,15.2373 15.237316,15.2372 0.17955,-5e-4 0.347659,-0.027 0.52533,-0.033 l 4.77e-4,0.032 30.474705,0 -4.77e-4,-0.032 c 0.178076,0.01 0.346202,0.033 0.525535,0.033 8.415195,10e-5 15.237187,-6.8219 15.237198,-15.2373 2e-6,-0.1792 -0.02668,-0.3477 -0.03268,-0.5254 l 0.03301,-0 1.1e-5,-30.47464 -0.03256,-4.4e-4 c 0.006,-0.17773 0.0327,-0.34622 0.0327,-0.52542 z"
       style="fill:#ffffff;fill-opacity:1;stroke:none"
       inkscape:connector-curvature="0" />
    <g
       inkscape:transform-center-y="12.500002"
       id="g3408"
       transform="matrix(0.5,0.86602541,-0.86602541,0.5,897.0575,450.97019)"
       inkscape:transform-center-x="21.650644">
      <rect
         style="fill:#ffffff;fill-opacity:1;stroke:#000000;stroke-width:0;stroke-linecap:butt;stroke-miterlimit:4;stroke-opacity:1;stroke-dasharray:none"
         id="rect3410"
         width="12"
         height="50"
         x="51.977112"
         y="1002.3597" />
      <rect
         y="1002.3597"
         x="53.977112"
         height="50"
         width="8"
         id="rect3412"
         style="fill:#000000;fill-opacity:1;stroke:#000000;stroke-width:0;stroke-linecap:butt;stroke-miterlimit:4;stroke-opacity:1;stroke-dasharray:none" />
    </g>
    <g
       id="g3402"
       transform="matrix(-0.50000001,-0.86602541,0.86602541,-0.50000001,-781.10327,1553.7492)"
       inkscape:transform-center-x="-21.650651"
       inkscape:transform-center-y="-12.499991">
      <rect
         y="1002.3597"
         x="51.977112"
         height="50"
         width="12"
         id="rect3404"
         style="fill:#ffffff;fill-opacity:1;stroke:#000000;stroke-width:0;stroke-linecap:butt;stroke-miterlimit:4;stroke-opacity:1;stroke-dasharray:none" />
      <rect
         style="fill:#000000;fill-opacity:1;stroke:#000000;stroke-width:0;stroke-linecap:butt;stroke-miterlimit:4;stroke-opacity:1;stroke-dasharray:none"
         id="rect3406"
         width="8"
         height="50"
         x="53.977112"
         y="1002.3597" />
    </g>
    <g
       id="g3255"
       inkscape:transform-center-y="25">
      <rect
         y="1002.3597"
         x="51.977112"
         height="50"
         width="12"
         id="rect3985"
         style="fill:#ffffff;fill-opacity:1;stroke:#000000;stroke-width:0;stroke-linecap:butt;stroke-miterlimit:4;stroke-opacity:1;stroke-dasharray:none" />
      <rect
         style="fill:#000000;fill-opacity:1;stroke:#000000;stroke-width:0;stroke-linecap:butt;stroke-miterlimit:4;stroke-opacity:1;stroke-dasharray:none"
         id="rect3987"
         width="8"
         height="50"
         x="53.977112"
         y="1002.3597" />
    </g>
    <text
       xml:space="preserve"
       style="font-size:10px;font-style:normal;font-variant:normal;font-weight:normal;font-stretch:normal;line-height:125%;letter-spacing:0px;word-spacing:0px;fill:#000000;fill-opacity:1;stroke:none;font-family:URW Bookman L;-inkscape-font-specification:Sans"
       x="71"
       y="91.75"
       id="text3852"
       sodipodi:linespacing="125%"
       transform="translate(-0.02288901,952.35967)"><tspan
         sodipodi:role="line"
         id="tspan3854" /></text>
    <text
       xml:space="preserve"
       style="font-size:12px;font-style:normal;font-variant:normal;font-weight:bold;font-stretch:normal;line-height:125%;letter-spacing:0px;word-spacing:0px;fill:#000000;fill-opacity:1;stroke:none;font-family:URW Bookman L;-inkscape-font-specification:Sans Bold"
       x="79"
       y="94"
       id="text3856"
       sodipodi:linespacing="125%"
       transform="translate(-0.02288901,952.35967)"><tspan
         sodipodi:role="line"
         id="tspan3858" /></text>
    <text
       xml:space="preserve"
       style="font-size:10px;font-style:normal;font-variant:normal;font-weight:normal;font-stretch:normal;text-align:center;line-height:100%;letter-spacing:0px;word-spacing:0px;text-anchor:middle;fill:#000000;fill-opacity:1;stroke:none;font-family:URW Bookman L;-inkscape-font-specification:Sans"
       x="77.472816"
       y="1047.3596"
       id="text3860"
       sodipodi:linespacing="100%"><tspan
         sodipodi:role="line"
         x="77.472816"
         y="1047.3596"
         id="tspan3864">795</tspan></text>
    <g
       id="g4047"
       transform="translate(-2,1.0000475)">
      <path
         transform="matrix(0.76,0,0,0.76,74.477118,980.45962)"
         d="M 50,27.5 C 50,34.403559 44.403559,40 37.5,40 30.596441,40 25,34.403559 25,27.5 25,20.596441 30.596441,15 37.5,15 44.403559,15 50,20.596441 50,27.5 z"
         sodipodi:ry="12.5"
         sodipodi:rx="12.5"
         sodipodi:cy="27.5"
         sodipodi:cx="37.5"
         id="path3901"
         style="fill:#ffffff;fill-opacity:1;stroke:#000000;stroke-width:1.31578946;stroke-linecap:butt;stroke-miterlimit:4;stroke-opacity:1;stroke-dasharray:none"
         sodipodi:type="arc" />
      <text
         sodipodi:linespacing="100%"
         id="text3897"
         y="1005.4456"
         x="94.966179"
         style="font-size:10px;font-style:normal;font-variant:normal;font-weight:bold;font-stretch:normal;line-height:100%;letter-spacing:-1px;word-spacing:0px;fill:#000000;fill-opacity:1;stroke:none;font-family:URW Bookman L;-inkscape-font-specification:Sans Bold"
         xml:space="preserve"><tspan
           style="font-size:12px;line-height:100%;letter-spacing:0px"
           y="1005.4456"
           x="94.966179"
           id="tspan3899"
           sodipodi:role="line">80</tspan></text>
    </g>
    <text
       xml:space="preserve"
       style="font-size:24px;font-style:normal;font-variant:normal;font-weight:bold;font-stretch:normal;text-align:start;line-height:100%;letter-spacing:0px;word-spacing:0px;writing-mode:lr-tb;text-anchor:start;fill:#000000;fill-opacity:1;stroke:none;font-family:URW Bookman L;-inkscape-font-specification:Sans Bold"
       x="7.4971108"
       y="1010.5317"
       id="text3281"
       sodipodi:linespacing="100%"><tspan
         sodipodi:role="line"
         id="tspan3283"
         x="7.4971108"
         y="1010.5317"
         style="font-size:24px">N</tspan></text>
    <g
       inkscape:transform-center-x="21.650647"
       transform="matrix(-0.50000001,0.86602541,-0.86602541,-0.50000001,955.03461,1453.3299)"
       id="g3998"
       inkscape:transform-center-y="-12.49997">
      <rect
         y="1002.3597"
         x="51.977112"
         height="50"
         width="12"
         id="rect4000"
         style="fill:#ffffff;fill-opacity:1;stroke:#000000;stroke-width:0;stroke-linecap:butt;stroke-miterlimit:4;stroke-opacity:1;stroke-dasharray:none" />
      <rect
         style="fill:#000000;fill-opacity:1;stroke:#000000;stroke-width:0;stroke-linecap:butt;stroke-miterlimit:4;stroke-opacity:1;stroke-dasharray:none"
         id="rect4002"
         width="8"
         height="50"
         x="53.977112"
         y="1002.3597" />
    </g>
    <g
       inkscape:transform-center-y="12.500056"
       id="g4004"
       transform="matrix(0.50000001,-0.86602541,0.86602541,0.50000001,-839.08035,551.38953)"
       inkscape:transform-center-x="-21.650683">
      <rect
         style="fill:#ffffff;fill-opacity:1;stroke:#000000;stroke-width:0;stroke-linecap:butt;stroke-miterlimit:4;stroke-opacity:1;stroke-dasharray:none"
         id="rect4006"
         width="12"
         height="50"
         x="51.977112"
         y="1002.3597" />
      <rect
         y="1002.3597"
         x="53.977112"
         height="50"
         width="8"
         id="rect4008"
         style="fill:#000000;fill-opacity:1;stroke:#000000;stroke-width:0;stroke-linecap:butt;stroke-miterlimit:4;stroke-opacity:1;stroke-dasharray:none" />
    </g>
    <path
       inkscape:connector-curvature="0"
       style="fill:#ffffff;fill-opacity:1;stroke:#000000;stroke-width:0.99999982"
       d="m 87.476682,987.35944 c -1e-5,-8.00811 -6.491882,-14.49999 -14.500006,-14.49999 -0.17055,6e-5 -0.330894,0.0254 -0.500002,0.0312 l -8e-6,-0.0313 -28.999949,-3e-5 -3.6e-4,0.0315 c -0.169084,-0.006 -0.32947,-0.0312 -0.499934,-0.0312 -8.008181,3e-5 -14.499961,6.49184 -14.500025,14.5 2.59e-4,0.17035 0.02531,0.331 0.03126,0.50003 l -0.03129,-10e-5 5e-6,29.00004 0.03156,-0 c -0.0062,0.1692 -0.03126,0.3294 -0.0313,0.5 1.8e-5,8.0081 6.491903,14.4999 14.499988,14.5001 0.170393,10e-5 0.330909,-0.026 0.500088,-0.032 l -7.79e-4,0.032 28.999979,1e-4 3.7e-5,-0.031 c 0.168979,0.01 0.32946,0.031 0.49997,0.032 8.008095,0 14.499978,-6.4919 14.49995,-14.4999 3.7e-5,-0.1706 -0.02538,-0.331 -0.03124,-0.5001 l 0.03186,-0 1.7e-5,-28.99998 -0.03124,-9e-5 c 0.0058,-0.1691 0.03124,-0.32946 0.03124,-0.5 z"
       id="rect3977" />
    <path
       sodipodi:type="arc"
       style="fill:#ffffff;fill-opacity:1;stroke:#000000;stroke-width:0.86206901;stroke-linecap:butt;stroke-miterlimit:4;stroke-opacity:1;stroke-dasharray:none"
       id="path3973"
       sodipodi:cx="37.5"
       sodipodi:cy="27.5"
       sodipodi:rx="12.5"
       sodipodi:ry="12.5"
       d="m 50,27.5 a 12.5,12.5 0 1 1 -25,0 12.5,12.5 0 1 1 25,0 z"
       transform="matrix(0,1.16,-1.16,0,104.87671,943.85932)" />
    <path
       transform="matrix(0,1.16,-1.16,0,74.876697,943.85932)"
       d="m 50,27.5 a 12.5,12.5 0 1 1 -25,0 12.5,12.5 0 1 1 25,0 z"
       sodipodi:ry="12.5"
       sodipodi:rx="12.5"
       sodipodi:cy="27.5"
       sodipodi:cx="37.5"
       id="path3267"
       style="fill:#ffffff;fill-opacity:1;stroke:#000000;stroke-width:0.86206901;stroke-linecap:butt;stroke-miterlimit:4;stroke-opacity:1;stroke-dasharray:none"
       sodipodi:type="arc" />
    <path
       sodipodi:type="arc"
       style="fill:#ffffff;fill-opacity:1;stroke:#000000;stroke-width:0.86206901;stroke-linecap:butt;stroke-miterlimit:4;stroke-opacity:1;stroke-dasharray:none"
       id="path3422"
       sodipodi:cx="37.5"
       sodipodi:cy="27.5"
       sodipodi:rx="12.5"
       sodipodi:ry="12.5"
       d="m 50,27.5 a 12.5,12.5 0 1 1 -25,0 12.5,12.5 0 1 1 25,0 z"
       transform="matrix(0,1.16,-1.16,0,74.876688,973.85933)" />
    <path
       transform="matrix(0,1.16,-1.16,0,104.87669,973.85933)"
       d="m 50,27.5 a 12.5,12.5 0 1 1 -25,0 12.5,12.5 0 1 1 25,0 z"
       sodipodi:ry="12.5"
       sodipodi:rx="12.5"
       sodipodi:cy="27.5"
       sodipodi:cx="37.5"
       id="path3975"
       style="fill:#ffffff;fill-opacity:1;stroke:#000000;stroke-width:0.86206901;stroke-linecap:butt;stroke-miterlimit:4;stroke-opacity:1;stroke-dasharray:none"
       sodipodi:type="arc" />
    <path
       transform="matrix(0.16540424,0,0,0.16441952,24.42368,975.42927)"
       style="fill:none;fill-opacity:1;stroke:#000000;stroke-width:6.06343650999999983;stroke-miterlimit:4;stroke-opacity:1;stroke-dasharray:none"
       d="M 376.67383,464.85011 29.040436,464.8501 -144.77625,163.79074 29.040466,-137.2686 l 347.633394,2e-5 173.81668,301.05935 z"
       inkscape:randomized="0"
       inkscape:rounded="0"
       inkscape:flatsided="true"
       sodipodi:arg2="1.5707963"
       sodipodi:arg1="1.0471976"
       sodipodi:r2="173.8167"
       sodipodi:r1="347.63339"
       sodipodi:cy="163.79076"
       sodipodi:cx="202.85715"
       sodipodi:sides="6"
       id="tile_border"
       sodipodi:type="star"
       inkscape:label="#path4507" />
    <text
       sodipodi:linespacing="100%"
       id="text4043"
       y="966.37769"
       x="30.153643"
       style="font-size:14px;font-style:normal;font-variant:normal;font-weight:bold;font-stretch:normal;text-align:start;line-height:100%;letter-spacing:0px;word-spacing:0px;writing-mode:lr-tb;text-anchor:start;fill:#000000;fill-opacity:1;stroke:none;font-family:URW Bookman L;-inkscape-font-specification:Sans Bold"
       xml:space="preserve"><tspan
         style="font-size:14px"
         y="966.37769"
         x="30.153643"
         id="tspan4045"
         sodipodi:role="line">Ipswich</tspan></text>
  </g>
</svg>
